<?xml version="1.0" encoding="utf-8"?>
<!-- Generator: Adobe Illustrator 27.9.4, SVG Export Plug-In . SVG Version: 9.03 Build 54784)  -->
<svg version="1.1" id="logo" xmlns="http://www.w3.org/2000/svg" xmlns:xlink="http://www.w3.org/1999/xlink" x="0px" y="0px"
	 viewBox="0 0 20 20" style="enable-background:new 0 0 20 20;" xml:space="preserve">
<style type="text/css">
	.st0{fill:#444444;}
</style>
<g>
	<g id="You">
		<path id="u" class="st0" d="M7.7,12.3H7v-0.4c-0.3,0.3-0.5,0.5-0.7,0.5c-0.2,0-0.4-0.1-0.4-0.3c0-0.1-0.1-0.3-0.1-0.5V8.7h0.7v3
			c0,0.1,0.1,0.1,0.1,0.1c0.1,0,0.3-0.1,0.4-0.3V8.7h0.7L7.7,12.3L7.7,12.3z"/>
		<path id="o" class="st0" d="M5.3,9.9c0-0.4-0.1-0.7-0.2-0.9C4.9,8.8,4.6,8.7,4.3,8.7C4,8.7,3.7,8.8,3.5,9C3.4,9.2,3.3,9.5,3.3,9.9
			v1.3c0,0.4,0.1,0.7,0.2,0.8c0.2,0.3,0.5,0.4,0.8,0.4c0.3,0,0.6-0.1,0.8-0.4c0.1-0.2,0.2-0.5,0.2-0.8L5.3,9.9L5.3,9.9z M4.6,11.3
			c0,0.4-0.1,0.5-0.3,0.5S4,11.6,4,11.3V9.8c0-0.4,0.1-0.5,0.3-0.5s0.3,0.2,0.3,0.5V11.3z"/>
		<path id="y" class="st0" d="M2.6,10.4v2H1.8v-2c0,0-0.8-2.4-0.9-2.9h0.8l0.5,1.9l0.5-1.9h0.8L2.6,10.4L2.6,10.4z"/>
	</g>
	<g>
		<path class="st0" d="M14.8,9.3c-0.1,0-0.2,0.1-0.3,0.2v2.2c0.1,0.1,0.2,0.2,0.3,0.2s0.3-0.1,0.3-0.5v0V9.7
			C15.1,9.4,15,9.3,14.8,9.3z"/>
		<path class="st0" d="M17.2,9.3c-0.2,0-0.3,0.1-0.3,0.4v0.4h0.6V9.7C17.5,9.4,17.4,9.3,17.2,9.3z"/>
		<path class="st0" d="M19,7.8c0,0-0.1-0.7-0.4-1.1c-0.4-0.4-0.9-0.4-1.1-0.5c-1.5-0.1-3.8-0.1-3.8-0.1s-2.3,0-3.8,0.1
			c-0.2,0-0.7,0-1.1,0.5C8.5,7.1,8.4,7.8,8.4,7.8S8.3,8.7,8.3,9.6v0.8c0,0.9,0.1,1.7,0.1,1.7s0.1,0.7,0.4,1.1c0.4,0.4,1,0.4,1.2,0.5
			c0.9,0.1,3.7,0.1,3.7,0.1s2.3,0,3.8-0.1c0.2,0,0.7,0,1.1-0.5c0.3-0.3,0.4-1.1,0.4-1.1s0.1-0.9,0.1-1.7V9.6C19.1,8.7,19,7.8,19,7.8
			z M10.6,12.3H9.9V8.2H9.1V7.5h2.3v0.7h-0.8V12.3z M13.2,12.3L13.2,12.3h-0.7v-0.4c-0.3,0.3-0.5,0.5-0.7,0.5
			c-0.2,0-0.4-0.1-0.4-0.3c0-0.1-0.1-0.3-0.1-0.5V8.7H12v2.9c0,0.1,0.1,0.1,0.1,0.1c0.1,0,0.3-0.1,0.4-0.3V8.7h0.7V12.3z M15.7,11.3
			c0,0.3,0,0.6-0.1,0.7c-0.1,0.3-0.3,0.4-0.5,0.4s-0.5-0.1-0.7-0.4v0.4h-0.7V7.5h0.7v1.6c0.2-0.3,0.4-0.4,0.7-0.4l0,0
			c0.3,0,0.4,0.2,0.5,0.4c0,0.1,0.1,0.4,0.1,0.7V11.3z M18.2,10.6L18.2,10.6L18.2,10.6l-1.3,0v0.7c0,0.3,0.2,0.5,0.3,0.5
			c0.2,0,0.3-0.1,0.3-0.3c0,0,0-0.2,0-0.5h0.7v0.1c0,0.2,0,0.4,0,0.4c0,0.1-0.1,0.3-0.2,0.4c-0.2,0.3-0.5,0.4-0.8,0.4
			c-0.3,0-0.6-0.1-0.8-0.4c-0.1-0.2-0.2-0.5-0.2-0.8V9.9c0-0.4,0.1-0.7,0.2-0.9c0.2-0.2,0.5-0.4,0.8-0.4c0.3,0,0.6,0.1,0.8,0.4
			c0.1,0.2,0.2,0.5,0.2,0.8V10.6z"/>
	</g>
</g>
</svg>
