<?xml version="1.0" encoding="utf-8"?>
<!-- Generator: Adobe Illustrator 27.9.4, SVG Export Plug-In . SVG Version: 9.03 Build 54784)  -->
<svg version="1.1" id="logo" xmlns="http://www.w3.org/2000/svg" xmlns:xlink="http://www.w3.org/1999/xlink" x="0px" y="0px"
	 viewBox="0 0 30 30" style="enable-background:new 0 0 30 30;" xml:space="preserve">
<style type="text/css">
	.st0{fill:#444444;}
</style>
<g>
	<g id="You">
		<path id="u" class="st0" d="M11.8,18.3h-1v-0.6c-0.4,0.4-0.7,0.6-1,0.6S9.3,18.2,9.2,18c-0.1-0.2-0.1-0.4-0.1-0.8v-4.1h1v4.2
			c0,0.1,0.1,0.2,0.2,0.2c0.2,0,0.4-0.2,0.6-0.5v-3.9h1L11.8,18.3L11.8,18.3z"/>
		<path id="o" class="st0" d="M8.3,14.8c0-0.5-0.1-1-0.3-1.2c-0.3-0.4-0.7-0.5-1.1-0.5s-0.8,0.1-1.1,0.5c-0.2,0.3-0.3,0.7-0.3,1.2
			v1.8c0,0.5,0.1,0.9,0.3,1.2c0.3,0.4,0.7,0.5,1.1,0.5s0.8-0.2,1.1-0.5c0.2-0.3,0.3-0.6,0.3-1.2L8.3,14.8L8.3,14.8z M7.4,16.8
			c0.1,0.5-0.1,0.8-0.4,0.8c-0.3,0-0.5-0.3-0.4-0.8v-2C6.5,14.2,6.6,14,7,14c0.3,0,0.5,0.2,0.4,0.8V16.8z"/>
		<path id="y" class="st0" d="M4.5,15.5v2.8h-1v-2.8c0,0-1.1-3.4-1.3-4.1h1.1L4,14.1l0.7-2.7h1.1L4.5,15.5L4.5,15.5z"/>
	</g>
	<g>
		<path class="st0" d="M21.7,14c-0.2,0-0.3,0.1-0.5,0.2v3.1c0.2,0.2,0.2,0.2,0.5,0.2c0.3,0,0.4-0.2,0.4-0.7v0v-2.2
			C22.1,14.1,22,14,21.7,14z"/>
		<path class="st0" d="M25.1,14c-0.3,0-0.4,0.1-0.4,0.6v0.6h0.9v-0.6C25.5,14.1,25.4,14,25.1,14z"/>
		<path class="st0" d="M27.6,12c0,0-0.2-1-0.6-1.5c-0.6-0.6-1.2-0.6-1.5-0.6c-2.1-0.2-5.3-0.2-5.3-0.2s-3.2,0-5.3,0.2
			c-0.3,0-0.9,0-1.5,0.6c-0.5,0.5-0.6,1.5-0.6,1.5s-0.2,1.2-0.2,2.5v1.2c0,1.2,0.2,2.5,0.2,2.5s0.2,1,0.6,1.5
			c0.6,0.6,1.3,0.6,1.7,0.6c1.2,0.1,5.2,0.2,5.2,0.2s3.2,0,5.3-0.2c0.3,0,0.9,0,1.5-0.6c0.5-0.5,0.6-1.5,0.6-1.5s0.2-1.2,0.2-2.5
			v-1.2C27.8,13.2,27.6,12,27.6,12z M15.9,18.3h-1v-5.9h-1.1v-1H17v1h-1.1V18.3z M19.6,18.3L19.6,18.3h-1v-0.6
			c-0.4,0.4-0.7,0.6-1,0.6c-0.3,0-0.5-0.1-0.6-0.4c-0.1-0.2-0.1-0.4-0.1-0.8v-4h1v4.1c0,0.1,0.1,0.2,0.2,0.2c0.2,0,0.4-0.2,0.6-0.5
			v-3.9h1V18.3z M23.1,16.8c0,0.5,0,0.8-0.1,1c-0.1,0.4-0.4,0.6-0.8,0.6c-0.3,0-0.7-0.2-1-0.6v0.5h-0.9v-6.8h0.9v2.2
			c0.3-0.4,0.6-0.6,1-0.6l0,0c0.4,0,0.6,0.2,0.7,0.6c0.1,0.2,0.1,0.5,0.1,1V16.8z M26.5,15.9L26.5,15.9L26.5,15.9l-1.9,0v0.9
			c0,0.5,0.2,0.7,0.5,0.7s0.4-0.1,0.4-0.4c0,0,0-0.3,0-0.6h1v0.1c0,0.3,0,0.5,0,0.6c0,0.2-0.1,0.4-0.2,0.5c-0.3,0.4-0.6,0.5-1.1,0.5
			c-0.5,0-0.9-0.2-1.1-0.5c-0.2-0.3-0.3-0.6-0.3-1.2v-1.8c0-0.5,0.1-1,0.3-1.2c0.3-0.3,0.6-0.5,1.1-0.5c0.5,0,0.8,0.2,1.1,0.5
			c0.2,0.3,0.3,0.7,0.3,1.2V15.9z"/>
	</g>
</g>
</svg>
